<svg width="2048" height="2048" viewBox="0 0 2048 2048" fill="none" xmlns="http://www.w3.org/2000/svg">
<path d="M1023.05 1189.89C1024.27 1189.89 1025.55 1190.43 1026.88 1191.51C1028.21 1192.58 1029.57 1194.17 1030.97 1196.28C1033.76 1200.48 1036.65 1206.69 1039.55 1214.69C1045.36 1230.69 1051.23 1253.84 1056.46 1282.46C1066.94 1339.7 1074.9 1418.78 1074.9 1506.13C1074.9 1593.47 1066.94 1672.55 1056.46 1729.79C1051.23 1758.41 1045.36 1781.56 1039.55 1797.56C1036.65 1805.56 1033.76 1811.77 1030.97 1815.98C1029.57 1818.08 1028.21 1819.67 1026.88 1820.75C1025.55 1821.82 1024.27 1822.36 1023.05 1822.36C1021.82 1822.36 1020.52 1821.82 1019.15 1820.74C1017.78 1819.67 1016.36 1818.08 1014.89 1815.97C1011.95 1811.77 1008.84 1805.56 1005.67 1797.56C999.336 1781.56 992.771 1758.4 986.834 1729.79C974.961 1672.55 965.6 1593.47 965.6 1506.13C965.6 1418.78 974.961 1339.7 986.834 1282.47C992.771 1253.85 999.336 1230.69 1005.67 1214.69C1008.84 1206.69 1011.95 1200.48 1014.89 1196.28C1016.36 1194.18 1017.78 1192.58 1019.15 1191.51C1020.52 1190.43 1021.82 1189.89 1023.05 1189.89Z" fill="white" stroke="white" stroke-width="0.2"/>
<path d="M848.358 1237.9C788.065 1237.9 722.561 1230.7 672.132 1221.08C646.918 1216.27 625.475 1210.85 610.337 1205.42C602.768 1202.71 596.781 1199.99 592.687 1197.36C590.64 1196.04 589.071 1194.74 588.014 1193.47C586.958 1192.2 586.42 1190.98 586.419 1189.79C586.419 1188.61 586.959 1187.32 588.017 1185.93C589.075 1184.54 590.645 1183.06 592.693 1181.52C596.788 1178.42 602.776 1175.06 610.345 1171.57C625.483 1164.59 646.926 1157.1 672.14 1150.21C722.568 1136.44 788.069 1125.1 848.358 1125.1C908.645 1125.1 952.303 1136.44 980.885 1150.21C995.177 1157.09 1005.7 1164.58 1012.64 1171.55C1019.59 1178.53 1022.95 1184.98 1022.95 1189.79C1022.95 1194.6 1019.6 1200.02 1012.65 1205.44C1005.71 1210.86 995.19 1216.27 980.897 1221.08C952.312 1230.7 908.651 1237.9 848.358 1237.9Z" fill="white" stroke="white" stroke-width="0.2"/>
<mask id="path-3-inside-1_21_26" fill="white">
<path d="M1009.53 346.376C989.89 380.78 973.883 417.367 961.991 455.646C569.616 485.585 263.13 797.899 256.28 1176.87C248.996 1579.89 583.12 1919 1011.09 1926.22C1439.05 1933.43 1785.23 1605.79 1792.51 1202.76C1793.04 1173.59 1791.78 1144.74 1788.82 1116.34C1824.27 1098.48 1857.55 1077.21 1888.22 1052.98C1896.57 1102.24 1900.47 1152.9 1899.54 1204.57L1899.49 1207.3C1889.56 1671.82 1491.54 2041.37 1009.15 2033.23L1006.32 2033.18C525.264 2023.61 142.351 1641.46 149.207 1177.79L149.251 1175.06C157.495 718.963 539.86 353.756 1009.53 346.376Z"/>
</mask>
<path d="M1009.53 346.376C989.89 380.78 973.883 417.367 961.991 455.646C569.616 485.585 263.13 797.899 256.28 1176.87C248.996 1579.89 583.12 1919 1011.09 1926.22C1439.05 1933.43 1785.23 1605.79 1792.51 1202.76C1793.04 1173.59 1791.78 1144.74 1788.82 1116.34C1824.27 1098.48 1857.55 1077.21 1888.22 1052.98C1896.57 1102.24 1900.47 1152.9 1899.54 1204.57L1899.49 1207.3C1889.56 1671.82 1491.54 2041.37 1009.15 2033.23L1006.32 2033.18C525.264 2023.61 142.351 1641.46 149.207 1177.79L149.251 1175.06C157.495 718.963 539.86 353.756 1009.53 346.376Z" fill="white"/>
<path d="M1009.53 346.376L1039.93 363.752L1070.37 310.416L1008.93 311.381L1009.53 346.376ZM961.991 455.646L964.697 490.544L988.375 488.737L995.418 466.066L961.991 455.646ZM256.28 1176.87L221.285 1176.19L221.285 1176.19L256.28 1176.87ZM1011.09 1926.22L1010.54 1961.21L1010.54 1961.21L1011.09 1926.22ZM1792.51 1202.76L1827.51 1203.44L1827.51 1203.44L1792.51 1202.76ZM1788.82 1116.34L1773.04 1085.08L1751.51 1095.93L1754.01 1119.92L1788.82 1116.34ZM1888.22 1052.98L1922.73 1047.18L1912.86 988.895L1866.51 1025.51L1888.22 1052.98ZM1899.54 1204.57L1934.53 1205.3L1934.54 1205.27L1934.54 1205.24L1899.54 1204.57ZM1899.49 1207.3L1934.48 1208.09L1934.48 1208.06L1934.48 1208.03L1899.49 1207.3ZM1009.15 2033.23L1008.55 2068.23L1008.58 2068.23L1008.6 2068.23L1009.15 2033.23ZM1006.32 2033.18L1005.67 2068.18L1005.69 2068.18L1005.72 2068.18L1006.32 2033.18ZM149.207 1177.79L114.211 1177.18L114.21 1177.2L114.21 1177.23L149.207 1177.79ZM149.251 1175.06L114.256 1174.39L114.256 1174.42L114.255 1174.45L149.251 1175.06ZM1009.53 346.376L979.122 329C958.252 365.568 941.222 404.483 928.565 445.226L961.991 455.646L995.418 466.066C1006.54 430.25 1021.53 395.993 1039.93 363.752L1009.53 346.376ZM961.991 455.646L959.286 420.748C550.108 451.97 228.481 778.029 221.285 1176.19L256.28 1176.87L291.275 1177.54C297.778 817.769 589.125 519.201 964.697 490.544L961.991 455.646ZM256.28 1176.87L221.285 1176.19C213.63 1599.73 564.388 1953.69 1010.54 1961.21L1011.09 1926.22L1011.63 1891.22C601.852 1884.32 284.361 1560.05 291.275 1177.54L256.28 1176.87ZM1011.09 1926.22L1010.54 1961.21C1456.63 1968.73 1819.85 1626.9 1827.51 1203.44L1792.51 1202.76L1757.52 1202.09C1750.6 1584.67 1421.47 1898.13 1011.63 1891.22L1011.09 1926.22ZM1792.51 1202.76L1827.51 1203.44C1828.06 1172.83 1826.74 1142.57 1823.63 1112.76L1788.82 1116.34L1754.01 1119.92C1756.82 1146.92 1758.02 1174.34 1757.52 1202.09L1792.51 1202.76ZM1788.82 1116.34L1804.6 1147.6C1842.15 1128.68 1877.43 1106.14 1909.94 1080.46L1888.22 1052.98L1866.51 1025.51C1837.68 1048.28 1806.38 1068.28 1773.04 1085.08L1788.82 1116.34ZM1888.22 1052.98L1853.72 1058.79C1861.7 1105.92 1865.44 1154.41 1864.55 1203.89L1899.54 1204.57L1934.54 1205.24C1935.51 1151.39 1931.44 1098.56 1922.73 1047.18L1888.22 1052.98ZM1899.54 1204.57L1864.55 1203.83L1864.49 1206.56L1899.49 1207.3L1934.48 1208.03L1934.53 1205.3L1899.54 1204.57ZM1899.49 1207.3L1864.49 1206.51C1855.01 1650.6 1474.04 2006.07 1009.7 1998.24L1009.15 2033.23L1008.6 2068.23C1509.03 2076.66 1924.12 1693.05 1934.48 1208.09L1899.49 1207.3ZM1009.15 2033.23L1009.75 1998.24L1006.92 1998.19L1006.32 2033.18L1005.72 2068.18L1008.55 2068.23L1009.15 2033.23ZM1006.32 2033.18L1006.98 1998.19C543.974 1988.97 177.65 1621.55 184.204 1178.35L149.207 1177.79L114.21 1177.23C107.051 1661.37 506.555 2058.24 1005.67 2068.18L1006.32 2033.18ZM149.207 1177.79L184.203 1178.4L184.247 1175.67L149.251 1175.06L114.255 1174.45L114.211 1177.18L149.207 1177.79ZM149.251 1175.06L184.246 1175.74C192.128 739.693 558.074 388.474 1010.12 381.371L1009.53 346.376L1008.93 311.381C521.646 319.038 122.863 698.232 114.256 1174.39L149.251 1175.06Z" fill="white" mask="url(#path-3-inside-1_21_26)"/>
<rect x="1094.42" y="171.248" width="159.317" height="785.512" fill="white" stroke="white" stroke-width="68"/>
<rect x="1706" y="34" width="161.462" height="922.76" fill="white" stroke="white" stroke-width="68"/>
<rect x="1402" y="410" width="159.317" height="551.761" fill="white" stroke="white" stroke-width="68"/>
</svg>
